<svg xmlns="http://www.w3.org/2000/svg" xmlns:xlink="http://www.w3.org/1999/xlink" width="500" zoomAndPan="magnify" viewBox="0 0 375 374.999991" height="500" preserveAspectRatio="xMidYMid meet" version="1.0"><defs><clipPath id="02e1044b66"><path d="M 15.550781 15.617188 L 359.800781 15.617188 L 359.800781 359.726562 L 15.550781 359.726562 Z M 15.550781 15.617188 " clip-rule="nonzero"/></clipPath></defs><g clip-path="url(#02e1044b66)"><path fill="#ffffff" d="M 267.464844 114.785156 C 270.492188 121.03125 280.546875 123.519531 284.167969 132.597656 C 284.167969 132.597656 288.03125 137.699219 288.03125 142.914062 C 285.242188 131.316406 263.863281 135.902344 267.464844 114.785156 Z M 212.761719 220.214844 C 206.152344 217.769531 198.652344 219.214844 193.691406 224.21875 C 191.671875 226.25 190.097656 228.832031 189.304688 232.101562 C 183.851562 254.578125 209.753906 267.097656 209.753906 267.097656 C 209.753906 267.097656 179.886719 260.195312 176.910156 235.410156 C 175.324219 222.183594 181.683594 212.121094 190.957031 206.632812 C 198.75 202.019531 208.253906 200.835938 220.289062 201.78125 C 237.054688 203.09375 251.171875 213.023438 267.757812 218.140625 C 294.296875 226.328125 322.902344 228.78125 349.1875 209.738281 C 344.703125 206.917969 344.582031 202.535156 344.582031 202.535156 C 355.636719 208.285156 360.386719 200.972656 359.75 197.742188 C 340.898438 186.058594 322.996094 172.851562 309.289062 152.871094 C 305.371094 147.164062 304.324219 139.828125 306.90625 133.40625 C 307.707031 131.410156 307.480469 128.785156 306.445312 123.761719 C 300.113281 93.023438 259.957031 87.320312 235.417969 67.738281 C 232.691406 53.824219 250.769531 39.996094 249.953125 15.617188 C 249.953125 15.617188 185.542969 21.597656 178.066406 60.839844 C 144.171875 59.605469 109.929688 68.886719 81.375 87.207031 C 90.539062 85.78125 99.636719 85.183594 108.699219 85.332031 C 65.003906 102.9375 21.894531 141.132812 15.550781 184.238281 C 15.550781 184.238281 31.910156 156.476562 63.144531 145.570312 C 17.339844 175.066406 14.550781 275.152344 64.605469 322.511719 C 44.03125 283.503906 43.949219 241.042969 53.476562 214.109375 C 69.1875 169.691406 115.914062 144.164062 168.078125 135.960938 C 164.402344 139.808594 161.054688 146.933594 161.054688 146.933594 C 176.546875 137.761719 216.332031 131.730469 246.820312 136.398438 C 182.371094 135.902344 139.902344 172.507812 139.902344 172.507812 C 139.902344 172.507812 142.300781 159.957031 146.230469 152.605469 C 58.21875 188.671875 63.742188 270.609375 95.605469 322.125 C 111.054688 347.097656 138.867188 356.558594 155.839844 359.726562 C 113.703125 332.089844 106.019531 276.761719 106.019531 276.761719 C 148.40625 371.203125 311.632812 344.804688 333.183594 254.839844 C 288.03125 264.492188 246.695312 232.769531 212.761719 220.214844 " fill-opacity="1" fill-rule="nonzero"/></g><path fill="#ffffff" d="M 248.105469 50.898438 C 245.660156 55.800781 243.484375 60.171875 243.066406 63.683594 C 250.304688 68.886719 259.027344 73.222656 267.492188 77.433594 C 270.023438 78.691406 272.578125 79.964844 275.117188 81.269531 C 279.492188 70.492188 290.386719 58.632812 290.75 40.136719 C 290.75 40.136719 269.03125 40.992188 248.914062 49.269531 C 248.640625 49.820312 248.371094 50.363281 248.105469 50.898438 " fill-opacity="1" fill-rule="nonzero"/></svg>